<mxfile host="app.diagrams.net" agent="Mozilla/5.0 (Macintosh; Intel Mac OS X 10_15_7) AppleWebKit/537.36 (KHTML, like Gecko) Chrome/129.0.0.0 Safari/537.36" version="24.7.17">
  <diagram id="hsoh2kzelLrmWtC6xoJ1" name="Page-1">
    <mxGraphModel dx="3682" dy="1587" grid="1" gridSize="10" guides="1" tooltips="1" connect="1" arrows="1" fold="1" page="1" pageScale="1" pageWidth="850" pageHeight="1100" math="0" shadow="0">
      <root>
        <mxCell id="0" />
        <mxCell id="1" parent="0" />
        <mxCell id="CcDZavGaOL-IFrITcl21-1" value="&lt;b&gt;External source 1&lt;/b&gt;&lt;div&gt;open&lt;span style=&quot;background-color: initial;&quot;&gt;telemetry collector&lt;/span&gt;&lt;/div&gt;&lt;div&gt;&lt;span style=&quot;background-color: initial;&quot;&gt;application compliant with OTLP&lt;/span&gt;&lt;/div&gt;" style="whiteSpace=wrap;html=1;aspect=fixed;fillColor=#fff2cc;strokeColor=#d6b656;" parent="1" vertex="1">
          <mxGeometry x="-1070" y="380" width="200" height="200" as="geometry" />
        </mxCell>
        <mxCell id="IYU9krIlDnfos9ZFKIxr-6" value="" style="endArrow=classic;html=1;rounded=0;exitX=1;exitY=0.5;exitDx=0;exitDy=0;entryX=0;entryY=0;entryDx=0;entryDy=52.5;entryPerimeter=0;" parent="1" source="DjRHI8y5ojwg_jqVHSCo-1" target="8VH0s_cmXaPNRZBxuW16-6" edge="1">
          <mxGeometry width="50" height="50" relative="1" as="geometry">
            <mxPoint x="180" y="360" as="sourcePoint" />
            <mxPoint x="-240" y="530" as="targetPoint" />
            <Array as="points" />
          </mxGeometry>
        </mxCell>
        <mxCell id="8VH0s_cmXaPNRZBxuW16-6" value="&lt;b&gt;Object storage&lt;/b&gt;" style="shape=cylinder3;whiteSpace=wrap;html=1;boundedLbl=1;backgroundOutline=1;size=15;fillColor=#e1d5e7;strokeColor=#9673a6;" parent="1" vertex="1">
          <mxGeometry x="-220" y="330" width="190" height="80" as="geometry" />
        </mxCell>
        <mxCell id="8VH0s_cmXaPNRZBxuW16-10" value="" style="endArrow=classic;html=1;rounded=0;" parent="1" target="mfuxEvPMltzNGWzV3Yu3-1" edge="1">
          <mxGeometry width="50" height="50" relative="1" as="geometry">
            <mxPoint x="120" y="560" as="sourcePoint" />
            <mxPoint x="330" y="740" as="targetPoint" />
            <Array as="points" />
          </mxGeometry>
        </mxCell>
        <mxCell id="8VH0s_cmXaPNRZBxuW16-13" value="&lt;b&gt;Pull http S3&lt;/b&gt;" style="text;html=1;align=center;verticalAlign=middle;whiteSpace=wrap;rounded=0;" parent="1" vertex="1">
          <mxGeometry x="-10" y="430" width="140" height="30" as="geometry" />
        </mxCell>
        <mxCell id="UmYWQ5gtAxn8oUJC7jjt-1" value="" style="endArrow=classic;html=1;rounded=0;exitX=-0.014;exitY=0.341;exitDx=0;exitDy=0;exitPerimeter=0;" parent="1" source="mfuxEvPMltzNGWzV3Yu3-6" target="8VH0s_cmXaPNRZBxuW16-6" edge="1">
          <mxGeometry width="50" height="50" relative="1" as="geometry">
            <mxPoint x="90" y="580" as="sourcePoint" />
            <mxPoint x="386" y="710" as="targetPoint" />
            <Array as="points" />
          </mxGeometry>
        </mxCell>
        <mxCell id="UmYWQ5gtAxn8oUJC7jjt-2" value="&lt;b&gt;Push metrics&lt;/b&gt;&lt;br&gt;OTLP http" style="text;html=1;align=center;verticalAlign=middle;whiteSpace=wrap;rounded=0;" parent="1" vertex="1">
          <mxGeometry x="220" y="495" width="140" height="30" as="geometry" />
        </mxCell>
        <mxCell id="DjRHI8y5ojwg_jqVHSCo-1" value="&lt;b&gt;Quickwit indexer&lt;br&gt;&lt;/b&gt;&lt;div&gt;ingest API&lt;/div&gt;&lt;div&gt;otlp/grpc endpoint&lt;/div&gt;" style="whiteSpace=wrap;html=1;aspect=fixed;fillColor=#d5e8d4;strokeColor=#82b366;" parent="1" vertex="1">
          <mxGeometry x="-600" y="380" width="220" height="220" as="geometry" />
        </mxCell>
        <mxCell id="mfuxEvPMltzNGWzV3Yu3-1" value="&lt;b&gt;Quickwit metastore&lt;br&gt;&lt;/b&gt;&lt;div&gt;ingest API&lt;/div&gt;&lt;div&gt;otlp/grpc endpoint&lt;/div&gt;" style="whiteSpace=wrap;html=1;aspect=fixed;fillColor=#d5e8d4;strokeColor=#82b366;" vertex="1" parent="1">
          <mxGeometry x="-255" y="560" width="220" height="220" as="geometry" />
        </mxCell>
        <mxCell id="mfuxEvPMltzNGWzV3Yu3-2" value="&lt;b&gt;Object storage&lt;br&gt;PostgreSQL&lt;/b&gt;" style="shape=cylinder3;whiteSpace=wrap;html=1;boundedLbl=1;backgroundOutline=1;size=15;fillColor=#e1d5e7;strokeColor=#9673a6;" vertex="1" parent="1">
          <mxGeometry x="-160" y="730" width="190" height="80" as="geometry" />
        </mxCell>
        <mxCell id="mfuxEvPMltzNGWzV3Yu3-3" value="split" style="shape=note;whiteSpace=wrap;html=1;backgroundOutline=1;darkOpacity=0.05;" vertex="1" parent="1">
          <mxGeometry x="-320" y="390" width="50" height="80" as="geometry" />
        </mxCell>
        <mxCell id="mfuxEvPMltzNGWzV3Yu3-4" value="" style="endArrow=classic;html=1;rounded=0;entryX=0;entryY=0.5;entryDx=0;entryDy=0;exitX=1;exitY=0.5;exitDx=0;exitDy=0;" edge="1" parent="1" source="DjRHI8y5ojwg_jqVHSCo-1" target="mfuxEvPMltzNGWzV3Yu3-1">
          <mxGeometry width="50" height="50" relative="1" as="geometry">
            <mxPoint x="-370" y="490" as="sourcePoint" />
            <mxPoint x="-230" y="438" as="targetPoint" />
            <Array as="points" />
          </mxGeometry>
        </mxCell>
        <mxCell id="mfuxEvPMltzNGWzV3Yu3-5" value="&lt;b&gt;Metadata&lt;/b&gt;" style="text;html=1;align=center;verticalAlign=middle;whiteSpace=wrap;rounded=0;" vertex="1" parent="1">
          <mxGeometry x="-370" y="610" width="110" height="30" as="geometry" />
        </mxCell>
        <mxCell id="mfuxEvPMltzNGWzV3Yu3-6" value="&lt;b&gt;Quickwit searcher&lt;/b&gt;&lt;br&gt;Search API&lt;br&gt;Elastic AP&lt;b&gt;I&lt;/b&gt;" style="whiteSpace=wrap;html=1;aspect=fixed;fillColor=#d5e8d4;strokeColor=#82b366;" vertex="1" parent="1">
          <mxGeometry x="130" y="440" width="220" height="220" as="geometry" />
        </mxCell>
        <mxCell id="mfuxEvPMltzNGWzV3Yu3-7" value="&lt;b&gt;Grafana&lt;/b&gt;&lt;div&gt;&lt;b&gt;Quickwit datasource&lt;br&gt;&lt;/b&gt;&lt;/div&gt;" style="whiteSpace=wrap;html=1;aspect=fixed;fillColor=#dae8fc;strokeColor=#6c8ebf;" vertex="1" parent="1">
          <mxGeometry x="550" y="150" width="220" height="220" as="geometry" />
        </mxCell>
        <mxCell id="mfuxEvPMltzNGWzV3Yu3-8" value="&lt;b&gt;Quickwit UI&lt;/b&gt;" style="whiteSpace=wrap;html=1;aspect=fixed;fillColor=#dae8fc;strokeColor=#6c8ebf;" vertex="1" parent="1">
          <mxGeometry x="540" y="440" width="220" height="220" as="geometry" />
        </mxCell>
        <mxCell id="mfuxEvPMltzNGWzV3Yu3-9" value="&lt;b&gt;Jaeger UI&lt;/b&gt;" style="whiteSpace=wrap;html=1;aspect=fixed;fillColor=#dae8fc;strokeColor=#6c8ebf;" vertex="1" parent="1">
          <mxGeometry x="540" y="780" width="220" height="220" as="geometry" />
        </mxCell>
        <mxCell id="mfuxEvPMltzNGWzV3Yu3-10" value="" style="endArrow=classic;html=1;rounded=0;exitX=0;exitY=0.5;exitDx=0;exitDy=0;" edge="1" parent="1" source="mfuxEvPMltzNGWzV3Yu3-9" target="mfuxEvPMltzNGWzV3Yu3-6">
          <mxGeometry width="50" height="50" relative="1" as="geometry">
            <mxPoint x="130" y="570" as="sourcePoint" />
            <mxPoint x="-25" y="634" as="targetPoint" />
            <Array as="points" />
          </mxGeometry>
        </mxCell>
        <mxCell id="mfuxEvPMltzNGWzV3Yu3-11" value="&lt;b&gt;Pull http&lt;/b&gt;" style="text;html=1;align=center;verticalAlign=middle;whiteSpace=wrap;rounded=0;" vertex="1" parent="1">
          <mxGeometry x="-20" y="610" width="140" height="30" as="geometry" />
        </mxCell>
        <mxCell id="mfuxEvPMltzNGWzV3Yu3-12" value="&lt;b&gt;Pull grpc&lt;br&gt;Jaeger API&lt;/b&gt;" style="text;html=1;align=center;verticalAlign=middle;whiteSpace=wrap;rounded=0;" vertex="1" parent="1">
          <mxGeometry x="370" y="810" width="140" height="30" as="geometry" />
        </mxCell>
        <mxCell id="mfuxEvPMltzNGWzV3Yu3-13" value="" style="endArrow=classic;html=1;rounded=0;" edge="1" parent="1" source="mfuxEvPMltzNGWzV3Yu3-8" target="mfuxEvPMltzNGWzV3Yu3-6">
          <mxGeometry width="50" height="50" relative="1" as="geometry">
            <mxPoint x="510" y="950" as="sourcePoint" />
            <mxPoint x="323" y="670" as="targetPoint" />
            <Array as="points" />
          </mxGeometry>
        </mxCell>
        <mxCell id="mfuxEvPMltzNGWzV3Yu3-14" value="&lt;b&gt;Pull http&lt;/b&gt;&lt;br&gt;Lucene search AP&lt;b&gt;I&lt;/b&gt;" style="text;html=1;align=center;verticalAlign=middle;whiteSpace=wrap;rounded=0;" vertex="1" parent="1">
          <mxGeometry x="380" y="560" width="140" height="30" as="geometry" />
        </mxCell>
        <mxCell id="mfuxEvPMltzNGWzV3Yu3-15" value="" style="endArrow=classic;html=1;rounded=0;exitX=-0.014;exitY=0.636;exitDx=0;exitDy=0;exitPerimeter=0;entryX=1;entryY=0.25;entryDx=0;entryDy=0;" edge="1" parent="1" source="mfuxEvPMltzNGWzV3Yu3-7" target="mfuxEvPMltzNGWzV3Yu3-6">
          <mxGeometry width="50" height="50" relative="1" as="geometry">
            <mxPoint x="550" y="560" as="sourcePoint" />
            <mxPoint x="360" y="560" as="targetPoint" />
            <Array as="points" />
          </mxGeometry>
        </mxCell>
        <mxCell id="mfuxEvPMltzNGWzV3Yu3-16" value="&lt;b&gt;Pull http&lt;/b&gt;&lt;br&gt;Lucene search AP&lt;b&gt;I&lt;/b&gt;" style="text;html=1;align=center;verticalAlign=middle;whiteSpace=wrap;rounded=0;" vertex="1" parent="1">
          <mxGeometry x="350" y="340" width="140" height="30" as="geometry" />
        </mxCell>
        <mxCell id="mfuxEvPMltzNGWzV3Yu3-18" value="" style="endArrow=classic;html=1;rounded=0;entryX=0;entryY=0.25;entryDx=0;entryDy=0;exitX=0.985;exitY=0.575;exitDx=0;exitDy=0;exitPerimeter=0;" edge="1" parent="1" source="CcDZavGaOL-IFrITcl21-1" target="DjRHI8y5ojwg_jqVHSCo-1">
          <mxGeometry width="50" height="50" relative="1" as="geometry">
            <mxPoint x="-750" y="485" as="sourcePoint" />
            <mxPoint x="-625" y="665" as="targetPoint" />
            <Array as="points" />
          </mxGeometry>
        </mxCell>
        <mxCell id="mfuxEvPMltzNGWzV3Yu3-19" value="&lt;b&gt;push OTLP/grpc&lt;br&gt;logs&lt;/b&gt;" style="text;html=1;align=center;verticalAlign=middle;whiteSpace=wrap;rounded=0;" vertex="1" parent="1">
          <mxGeometry x="-780" y="410" width="140" height="30" as="geometry" />
        </mxCell>
        <mxCell id="mfuxEvPMltzNGWzV3Yu3-20" value="" style="endArrow=classic;html=1;rounded=0;entryX=0;entryY=0.75;entryDx=0;entryDy=0;exitX=0.99;exitY=0.6;exitDx=0;exitDy=0;exitPerimeter=0;" edge="1" parent="1" source="CcDZavGaOL-IFrITcl21-1" target="DjRHI8y5ojwg_jqVHSCo-1">
          <mxGeometry width="50" height="50" relative="1" as="geometry">
            <mxPoint x="-863" y="505" as="sourcePoint" />
            <mxPoint x="-590" y="445" as="targetPoint" />
            <Array as="points" />
          </mxGeometry>
        </mxCell>
        <mxCell id="mfuxEvPMltzNGWzV3Yu3-21" value="&lt;b&gt;push OTLP/grpc&lt;br&gt;traces&lt;/b&gt;" style="text;html=1;align=center;verticalAlign=middle;whiteSpace=wrap;rounded=0;" vertex="1" parent="1">
          <mxGeometry x="-790" y="540" width="140" height="30" as="geometry" />
        </mxCell>
        <mxCell id="mfuxEvPMltzNGWzV3Yu3-22" value="&lt;b&gt;External source 2&lt;/b&gt;&lt;div&gt;vector&lt;/div&gt;&lt;div&gt;filebeat&lt;/div&gt;&lt;div&gt;fluent&lt;/div&gt;&lt;div&gt;logstash&lt;/div&gt;" style="whiteSpace=wrap;html=1;aspect=fixed;fillColor=#fff2cc;strokeColor=#d6b656;" vertex="1" parent="1">
          <mxGeometry x="-1060" y="700" width="200" height="200" as="geometry" />
        </mxCell>
        <mxCell id="mfuxEvPMltzNGWzV3Yu3-23" value="" style="endArrow=classic;html=1;rounded=0;exitX=0.99;exitY=0.585;exitDx=0;exitDy=0;exitPerimeter=0;" edge="1" parent="1" source="mfuxEvPMltzNGWzV3Yu3-22">
          <mxGeometry width="50" height="50" relative="1" as="geometry">
            <mxPoint x="-862" y="510" as="sourcePoint" />
            <mxPoint x="-600" y="560" as="targetPoint" />
            <Array as="points" />
          </mxGeometry>
        </mxCell>
        <mxCell id="mfuxEvPMltzNGWzV3Yu3-24" value="&lt;b&gt;push http&lt;/b&gt;&lt;div&gt;&lt;b&gt;ingest API&lt;/b&gt;&lt;/div&gt;" style="text;html=1;align=center;verticalAlign=middle;whiteSpace=wrap;rounded=0;" vertex="1" parent="1">
          <mxGeometry x="-760" y="720" width="140" height="30" as="geometry" />
        </mxCell>
      </root>
    </mxGraphModel>
  </diagram>
</mxfile>
